# xmcd CD database file
#
# Track frame offsets:
#	150
#	11366
#	37965
#	60710
#	91448
#	127701
#	154950
#	164519
#	187928
#	219992
#	253118
#
# Disc length: 3954 seconds
#
# Revision: 2
# Processed by: cddbd v1.5.2PL0 Copyright (c) Steve Scherf et al.
# Submitted via: CDex 1.70beta3
#
DISCID=870f700b
DTITLE=The New Mastersounds - Live At La Cova
DYEAR=2006
DGENRE=Jazz+Funk
TTITLE0=Miracles
TTITLE1=Duffin' 'Round
TTITLE2=You Got It All
TTITLE3=3 On The B
TTITLE4=Land Of Nod
TTITLE5=The Tin Drum
TTITLE6=La Cova
TTITLE7=The Minx
TTITLE8=Spooky
TTITLE9=Fire Eater
TTITLE10=(エンハンスド)CD-EXTRA仕様
EXTD=YEAR: 2006
EXTT0=
EXTT1=
EXTT2=
EXTT3=
EXTT4=
EXTT5=
EXTT6=
EXTT7=
EXTT8=
EXTT9=
EXTT10=
PLAYORDER=
